<svg xmlns="http://www.w3.org/2000/svg" viewBox="0 0 328.9 402"><defs><style>.cls-1{fill:#fff;}</style></defs><title>candado-w</title><g id="Capa_2" data-name="Capa 2"><g id="Capa_1-2" data-name="Capa 1"><path class="cls-1" d="M320.9,190.72a26.42,26.42,0,0,0-19.41-8h-9.14V127.91q0-52.54-37.68-90.22T164.45,0Q111.9,0,74.23,37.69T36.54,127.91v54.82H27.41a26.44,26.44,0,0,0-19.42,8,26.43,26.43,0,0,0-8,19.42V374.59A26.48,26.48,0,0,0,8,394a26.48,26.48,0,0,0,19.42,8H301.49a27.28,27.28,0,0,0,27.41-27.41V210.13A26.39,26.39,0,0,0,320.9,190.72Zm-83.36-8H91.36V127.91q0-30.27,21.41-51.68t51.68-21.41q30.27,0,51.68,21.41t21.41,51.68Z"/></g></g></svg>