<svg xmlns="http://www.w3.org/2000/svg" xmlns:xlink="http://www.w3.org/1999/xlink" viewBox="0 0 1366 768"><defs><style>.cls-1{fill:none;}.cls-2{fill:#231f20;}.cls-3{fill:url(#New_Pattern_Swatch_3);}</style><pattern id="New_Pattern_Swatch_3" data-name="New Pattern Swatch 3" width="172.5" height="98" patternUnits="userSpaceOnUse" viewBox="0 0 172.5 98"><rect class="cls-1" width="172.5" height="98"/><polygon class="cls-2" points="119.52 98.47 131.58 77.38 155.87 77.29 167.76 97.7 170.07 97.69 157.02 75.28 130.42 75.39 117.21 98.48 130.26 120.89 131.41 118.88 119.52 98.47"/><polygon class="cls-2" points="133.28 80.31 122.9 98.46 133.09 115.94 134.24 113.94 125.21 98.45 134.45 82.31 153.04 82.23 162.07 97.72 164.38 97.71 154.19 80.23 133.28 80.31"/><polygon class="cls-2" points="136.37 85.6 129.03 98.44 136.13 110.63 137.28 108.62 131.34 98.42 137.53 87.6 150 87.55 155.95 97.75 158.26 97.74 151.15 85.54 136.37 85.6"/><polygon class="cls-2" points="139.31 90.65 134.87 98.41 139.03 105.55 140.18 103.55 137.18 98.4 140.47 92.65 147.1 92.62 150.1 97.77 152.41 97.76 148.25 90.62 139.31 90.65"/><polygon class="cls-2" points="145.82 52.57 170.11 52.42 182.39 73.39 170.7 93.92 171.87 95.91 184.7 73.38 171.25 50.42 144.65 50.58 131.82 73.12 134.13 73.1 145.82 52.57"/><polygon class="cls-2" points="168.44 55.37 147.53 55.5 137.52 73.08 139.83 73.07 148.69 57.49 167.29 57.37 176.69 73.42 167.82 89 168.99 91 179 73.41 168.44 55.37"/><polygon class="cls-2" points="165.41 60.69 150.62 60.78 143.64 73.05 145.95 73.03 151.79 62.77 164.26 62.7 170.57 73.46 164.73 83.72 165.9 85.71 172.88 73.45 165.41 60.69"/><polygon class="cls-2" points="162.51 65.77 153.58 65.82 149.49 73.01 151.79 73 154.74 67.82 161.37 67.78 164.72 73.5 161.78 78.68 162.94 80.67 167.03 73.48 162.51 65.77"/><polygon class="cls-2" points="52.98 97.7 40.92 118.79 16.63 118.88 4.74 98.47 2.42 98.48 15.48 120.89 42.08 120.78 55.29 97.69 42.24 75.28 41.09 77.29 52.98 97.7"/><polygon class="cls-2" points="39.22 115.86 49.6 97.71 39.41 80.23 38.26 82.23 47.29 97.72 38.05 113.86 19.45 113.94 10.43 98.45 8.12 98.46 18.31 115.94 39.22 115.86"/><polygon class="cls-2" points="36.13 110.57 43.47 97.73 36.37 85.54 35.22 87.55 41.16 97.75 34.97 108.57 22.5 108.62 16.55 98.42 14.24 98.43 21.35 110.63 36.13 110.57"/><polygon class="cls-2" points="33.19 105.52 37.63 97.76 33.47 90.62 32.32 92.62 35.32 97.77 32.03 103.52 25.4 103.55 22.4 98.4 20.09 98.41 24.25 105.55 33.19 105.52"/><polygon class="cls-2" points="26.3 52.46 38.42 73.51 26.25 94.54 2.63 94.52 1.48 96.51 27.41 96.54 40.73 73.52 27.45 50.46 1.52 50.44 2.68 52.44 26.3 52.46"/><polygon class="cls-2" points="35.04 73.51 24.6 55.39 4.37 55.37 5.52 57.37 23.45 57.39 32.73 73.51 23.41 89.61 5.48 89.59 4.33 91.59 24.56 91.61 35.04 73.51"/><polygon class="cls-2" points="28.91 73.5 21.53 60.69 7.42 60.68 8.57 62.68 20.38 62.69 26.61 73.5 20.36 84.3 8.55 84.29 7.39 86.28 21.51 86.3 28.91 73.5"/><polygon class="cls-2" points="23.07 73.5 18.61 65.75 10.34 65.74 11.49 67.74 17.45 67.75 20.76 73.5 17.44 79.23 11.48 79.23 10.32 81.23 18.59 81.23 23.07 73.5"/><polygon class="cls-2" points="-26.68 52.57 -2.39 52.42 9.89 73.39 -1.8 93.92 -0.63 95.91 12.2 73.38 -1.25 50.42 -27.85 50.58 -40.68 73.12 -38.37 73.1 -26.68 52.57"/><polygon class="cls-2" points="-4.06 55.37 -24.97 55.5 -34.98 73.08 -32.67 73.07 -23.8 57.49 -5.21 57.37 4.19 73.42 -4.68 89 -3.51 91 6.5 73.41 -4.06 55.37"/><polygon class="cls-2" points="-7.09 60.69 -21.88 60.78 -28.86 73.05 -26.55 73.03 -20.71 62.77 -8.24 62.7 -1.93 73.46 -7.77 83.72 -6.6 85.71 0.38 73.45 -7.09 60.69"/><polygon class="cls-2" points="145.74 45.58 133.59 24.54 145.74 3.5 169.36 3.5 170.52 1.5 144.59 1.5 131.28 24.54 144.59 47.58 170.52 47.58 169.36 45.58 145.74 45.58"/><polygon class="cls-2" points="136.98 24.54 147.43 42.65 167.67 42.65 166.51 40.65 148.59 40.65 139.29 24.54 148.59 8.44 166.51 8.44 167.67 6.44 147.43 6.44 136.98 24.54"/><polygon class="cls-2" points="143.1 24.54 150.5 37.35 164.61 37.35 163.45 35.35 151.65 35.35 145.41 24.54 151.65 13.74 163.45 13.74 164.61 11.74 150.5 11.74 143.1 24.54"/><polygon class="cls-2" points="148.95 24.54 153.42 32.29 161.69 32.29 160.53 30.29 154.57 30.29 151.26 24.54 154.57 18.8 160.53 18.8 161.69 16.8 153.42 16.8 148.95 24.54"/><polygon class="cls-2" points="198.99 45.58 174.7 45.5 162.62 24.43 174.5 4 173.35 2 160.31 24.42 173.54 47.5 200.14 47.58 213.18 25.17 210.87 25.16 198.99 45.58"/><polygon class="cls-2" points="176.4 42.58 197.31 42.64 207.48 25.15 205.17 25.14 196.16 40.64 177.56 40.58 168.31 24.44 177.33 8.95 176.18 6.94 166 24.44 176.4 42.58"/><polygon class="cls-2" points="179.48 37.28 194.26 37.33 201.36 25.13 199.05 25.12 193.12 35.33 180.64 35.29 174.44 24.46 180.37 14.26 179.22 12.26 172.13 24.45 179.48 37.28"/><polygon class="cls-2" points="119.52 0.47 131.58 -20.62 155.87 -20.71 167.76 -0.3 170.07 -0.31 157.02 -22.72 130.42 -22.61 117.21 0.48 130.26 22.89 131.41 20.88 119.52 0.47"/><polygon class="cls-2" points="133.28 -17.69 122.9 0.46 133.09 17.94 134.24 15.94 125.21 0.45 134.45 -15.7 153.04 -15.77 162.07 -0.28 164.38 -0.29 154.19 -17.77 133.28 -17.69"/><polygon class="cls-2" points="136.37 -12.4 129.03 0.43 136.13 12.63 137.28 10.62 131.34 0.42 137.53 -10.4 150 -10.45 155.95 -0.26 158.26 -0.26 151.15 -12.46 136.37 -12.4"/><polygon class="cls-2" points="139.31 -7.35 134.87 0.41 139.03 7.55 140.18 5.55 137.18 0.4 140.47 -5.35 147.1 -5.38 150.1 -0.23 152.41 -0.24 148.25 -7.38 139.31 -7.35"/><polygon class="cls-2" points="59.49 94.58 47.34 73.54 59.49 52.51 83.11 52.51 84.27 50.51 58.34 50.51 45.03 73.54 58.34 96.58 84.27 96.58 83.11 94.58 59.49 94.58"/><polygon class="cls-2" points="50.73 73.54 61.18 91.65 81.42 91.65 80.27 89.65 62.34 89.65 53.04 73.54 62.34 57.44 80.27 57.44 81.42 55.44 61.18 55.44 50.73 73.54"/><polygon class="cls-2" points="56.85 73.54 64.25 86.35 78.36 86.35 77.2 84.35 65.4 84.35 59.16 73.54 65.4 62.74 77.2 62.74 78.36 60.74 64.25 60.74 56.85 73.54"/><polygon class="cls-2" points="62.7 73.54 67.17 81.29 75.44 81.29 74.28 79.29 68.32 79.29 65.01 73.54 68.32 67.8 74.28 67.8 75.44 65.8 67.17 65.8 62.7 73.54"/><polygon class="cls-2" points="112.74 94.58 88.45 94.5 76.37 73.42 88.25 53.01 87.1 51 74.06 73.42 87.29 96.5 113.89 96.58 126.93 74.17 124.62 74.16 112.74 94.58"/><polygon class="cls-2" points="90.15 91.58 111.06 91.64 121.23 74.15 118.92 74.14 109.91 89.64 91.31 89.58 82.06 73.44 91.08 57.95 89.93 55.94 79.75 73.44 90.15 91.58"/><polygon class="cls-2" points="93.23 86.28 108.01 86.33 115.11 74.13 112.8 74.12 106.87 84.33 94.39 84.29 88.19 73.46 94.12 63.26 92.97 61.26 85.88 73.45 93.23 86.28"/><polygon class="cls-2" points="96.17 81.23 105.11 81.26 109.26 74.11 106.95 74.1 103.96 79.25 97.33 79.23 94.03 73.48 97.03 68.33 95.88 66.33 91.72 73.47 96.17 81.23"/><polygon class="cls-2" points="139.23 48.7 127.17 69.79 102.88 69.88 90.98 49.47 88.67 49.48 101.73 71.89 128.33 71.78 141.54 48.69 128.49 26.28 127.34 28.29 139.23 48.7"/><polygon class="cls-2" points="125.47 66.86 135.85 48.71 125.66 31.23 124.51 33.23 133.54 48.72 124.3 64.86 105.7 64.94 96.68 49.45 94.37 49.46 104.56 66.94 125.47 66.86"/><polygon class="cls-2" points="122.38 61.57 129.72 48.73 122.62 36.54 121.47 38.55 127.42 48.74 121.22 59.57 108.75 59.62 102.8 49.42 100.49 49.43 107.6 61.63 122.38 61.57"/><polygon class="cls-2" points="119.44 56.52 123.88 48.76 119.72 41.62 118.57 43.62 121.57 48.77 118.28 54.52 111.65 54.55 108.65 49.4 106.34 49.41 110.5 56.55 119.44 56.52"/><polygon class="cls-2" points="33.27 49.47 45.33 28.38 69.62 28.29 81.52 48.7 83.83 48.69 70.77 26.28 44.17 26.39 30.96 49.48 44.01 71.89 45.16 69.88 33.27 49.47"/><polygon class="cls-2" points="47.03 31.31 36.65 49.46 46.84 66.94 47.99 64.94 38.96 49.45 48.2 33.3 66.8 33.23 75.82 48.72 78.13 48.71 67.94 31.23 47.03 31.31"/><polygon class="cls-2" points="50.12 36.6 42.78 49.44 49.88 61.63 51.03 59.62 45.09 49.42 51.28 38.6 63.75 38.55 69.7 48.74 72.01 48.74 64.9 36.54 50.12 36.6"/><polygon class="cls-2" points="53.06 41.65 48.62 49.41 52.78 56.55 53.93 54.55 50.93 49.4 54.22 43.65 60.85 43.62 63.85 48.77 66.16 48.76 62 41.62 53.06 41.65"/><polygon class="cls-2" points="112.55 3.46 124.67 24.51 112.5 45.54 88.88 45.52 87.72 47.51 113.66 47.54 126.98 24.52 113.7 1.46 87.77 1.44 88.93 3.44 112.55 3.46"/><polygon class="cls-2" points="121.29 24.51 110.85 6.39 90.61 6.37 91.77 8.37 109.7 8.39 118.98 24.51 109.66 40.61 91.73 40.59 90.58 42.59 110.81 42.61 121.29 24.51"/><polygon class="cls-2" points="115.16 24.5 107.78 11.69 93.67 11.68 94.82 13.68 106.63 13.69 112.85 24.5 106.61 35.3 94.8 35.29 93.64 37.28 107.76 37.3 115.16 24.5"/><polygon class="cls-2" points="109.32 24.5 104.86 16.75 96.59 16.74 97.74 18.74 103.7 18.75 107.01 24.5 103.69 30.23 97.73 30.23 96.57 32.23 104.84 32.23 109.32 24.5"/><polygon class="cls-2" points="59.57 3.57 83.86 3.42 96.14 24.39 84.45 44.92 85.62 46.91 98.45 24.38 85 1.42 58.4 1.58 45.57 24.12 47.88 24.1 59.57 3.57"/><polygon class="cls-2" points="82.19 6.37 61.28 6.5 51.27 24.08 53.58 24.07 62.45 8.49 81.04 8.37 90.44 24.42 81.57 40.01 82.74 42 92.75 24.41 82.19 6.37"/><polygon class="cls-2" points="79.16 11.69 64.37 11.78 57.39 24.05 59.7 24.03 65.54 13.77 78.01 13.7 84.32 24.46 78.48 34.72 79.65 36.71 86.63 24.45 79.16 11.69"/><polygon class="cls-2" points="76.27 16.77 67.33 16.82 63.24 24.01 65.55 24 68.49 18.82 75.12 18.78 78.47 24.5 75.53 29.68 76.69 31.67 80.78 24.48 76.27 16.77"/><polygon class="cls-2" points="26.49 45.58 2.2 45.5 -9.88 24.43 2 4 0.85 2 -12.19 24.42 1.04 47.5 27.64 47.58 40.68 25.17 38.37 25.16 26.49 45.58"/><polygon class="cls-2" points="3.9 42.58 24.81 42.64 34.98 25.15 32.67 25.14 23.66 40.64 5.06 40.58 -4.19 24.44 4.83 8.95 3.68 6.94 -6.5 24.44 3.9 42.58"/><polygon class="cls-2" points="6.98 37.28 21.76 37.33 28.86 25.13 26.55 25.12 20.62 35.33 8.14 35.29 1.94 24.46 7.87 14.26 6.72 12.26 -0.37 24.45 6.98 37.28"/><polygon class="cls-2" points="9.92 32.23 18.86 32.26 23.01 25.11 20.7 25.1 17.71 30.25 11.08 30.23 7.78 24.48 10.78 19.33 9.63 17.33 5.47 24.47 9.92 32.23"/><polygon class="cls-2" points="52.98 -0.3 40.92 20.79 16.63 20.88 4.74 0.47 2.42 0.48 15.48 22.89 42.08 22.78 55.29 -0.31 42.24 -22.72 41.09 -20.71 52.98 -0.3"/><polygon class="cls-2" points="39.22 17.86 49.6 -0.29 39.41 -17.77 38.26 -15.77 47.29 -0.28 38.05 15.87 19.45 15.94 10.43 0.45 8.12 0.46 18.31 17.94 39.22 17.86"/><polygon class="cls-2" points="36.13 12.57 43.47 -0.27 36.37 -12.46 35.22 -10.45 41.16 -0.26 34.97 10.57 22.5 10.62 16.55 0.42 14.24 0.43 21.35 12.63 36.13 12.57"/><polygon class="cls-2" points="33.19 7.52 37.63 -0.24 33.47 -7.38 32.32 -5.38 35.32 -0.23 32.03 5.52 25.4 5.55 22.4 0.4 20.09 0.41 24.25 7.55 33.19 7.52"/></pattern></defs><title>fondo3</title><g id="Capa_2" data-name="Capa 2"><g id="Capa_1-2" data-name="Capa 1"><rect class="cls-3" width="1366" height="768"/></g></g></svg>