<svg id="Capa_1" data-name="Capa 1" xmlns="http://www.w3.org/2000/svg" viewBox="0 0 224.96 85.2"><defs><style>.cls-1{fill:#806e71;}.cls-2{fill:#f0e4e7;}.cls-3{fill:#9dc5a9;}</style></defs><title>REAM</title><path class="cls-1" d="M218,129.65" transform="translate(-252.91 -77.39)"/><path class="cls-2" d="M350.46,128.39v15.37h-2.59v-32.9h11.8c6.48,0,9.91,3.48,9.91,8.65a7.44,7.44,0,0,1-6.15,7.7c3.38.8,5.64,3,5.64,8.6v1.27c0,2.31-.19,5.41.42,6.68H366.9c-.61-1.41-.47-4-.47-6.86v-.85c0-5.41-1.59-7.66-7.89-7.66Zm0-2.35h7.94c5.78,0,8.46-2.16,8.46-6.49,0-4-2.63-6.34-7.76-6.34h-8.64Z" transform="translate(-252.91 -77.39)"/><path class="cls-2" d="M400.6,127.59H383.82v13.82H402.2l-.38,2.35H381.29v-32.9h20.16v2.35H383.82v12H400.6Z" transform="translate(-252.91 -77.39)"/><path class="cls-2" d="M416.44,132.38l-4.18,11.38h-2.59l12.08-32.9h3l12.6,32.9h-2.78l-4.27-11.38Zm13-2.35c-3.67-9.77-5.55-14.47-6.2-16.68h-.05c-.8,2.49-2.92,8.32-5.88,16.68Z" transform="translate(-252.91 -77.39)"/><path class="cls-2" d="M475.33,128.62c0-6.43.05-12.59.19-15.88h-.14c-1.32,4.42-8,20.63-12.17,31h-2.5c-3.14-8-10-26.09-11.56-31.07h-.09c.23,3.76.33,11.42.33,17.06v14h-2.54v-32.9h3.81c4.51,11.28,10.2,26,11.42,29.75h.09c.75-2.4,7.33-18.8,11.94-29.75h3.76v32.9h-2.54Z" transform="translate(-252.91 -77.39)"/><circle class="cls-2" cx="41.35" cy="42.6" r="13.2"/><path class="cls-2" d="M332.19,106a6.84,6.84,0,0,1-8.58-1.45L308.93,113l-1.29-2.23,14.68-8.47a6.83,6.83,0,1,1,9.87,3.68Z" transform="translate(-252.91 -77.39)"/><path class="cls-2" d="M256.33,134a6.82,6.82,0,0,1,8.58,1.45L279.59,127l1.29,2.23-14.68,8.48a6.83,6.83,0,1,1-9.87-3.68Z" transform="translate(-252.91 -77.39)"/><path class="cls-2" d="M279.52,80.8a6.82,6.82,0,0,1-1.44,8.58l8.47,14.68-2.23,1.29-8.47-14.68a6.83,6.83,0,1,1,3.67-9.87Z" transform="translate(-252.91 -77.39)"/><path class="cls-3" d="M320.83,152.34a6.83,6.83,0,0,0-8.16-3l-8.47-14.68L302,135.91l8.47,14.68a6.83,6.83,0,1,0,10.39,1.75Z" transform="translate(-252.91 -77.39)"/></svg>